HIERARCHY
ROOT joint_Root
{
	OFFSET 0.0 0.0 0.0
	CHANNELS 6 Xposition Yposition Zposition Zrotation Xrotation Yrotation 
	JOINT Hips
	{
		OFFSET -17.1583 93.1646 452.98
		CHANNELS 6 Xposition Yposition Zposition Zrotation Xrotation Yrotation 
		JOINT Spine
		{
			OFFSET 15.7357 0.0 0.0
			CHANNELS 6 Xposition Yposition Zposition Zrotation Xrotation Yrotation 
			JOINT Chest
			{
				OFFSET 8.98455 -0.406207 0.0
				CHANNELS 6 Xposition Yposition Zposition Zrotation Xrotation Yrotation 
				JOINT Neck
				{
					OFFSET 16.3773 0.0 0.0
					CHANNELS 6 Xposition Yposition Zposition Zrotation Xrotation Yrotation 
					JOINT Head
					{
						OFFSET 6.45672 0.0 0.0
						CHANNELS 6 Xposition Yposition Zposition Zrotation Xrotation Yrotation 
						End Site
						{
							OFFSET 0.0 0.0 0.0
						}
					}
				}
				JOINT Shoulder_L
				{
					OFFSET 12.9942 -0.242716 4.98039
					CHANNELS 6 Xposition Yposition Zposition Zrotation Xrotation Yrotation 
					JOINT UpperArm_L
					{
						OFFSET 5.34809 0.0 0.0
						CHANNELS 6 Xposition Yposition Zposition Zrotation Xrotation Yrotation 
						JOINT LowerArm_L
						{
							OFFSET 24.3286 1.87007e-05 0.0
							CHANNELS 6 Xposition Yposition Zposition Zrotation Xrotation Yrotation 
							JOINT Hand_L
							{
								OFFSET 22.2916 0.0 0.0
								CHANNELS 6 Xposition Yposition Zposition Zrotation Xrotation Yrotation 
								End Site
								{
									OFFSET 0.0 0.0 0.0
								}
							}
						}
					}
				}
				JOINT Shoulder_R
				{
					OFFSET 12.9945 -0.242716 -4.98039
					CHANNELS 6 Xposition Yposition Zposition Zrotation Xrotation Yrotation 
					JOINT UpperArm_R
					{
						OFFSET -5.34813 0.0 0.0
						CHANNELS 6 Xposition Yposition Zposition Zrotation Xrotation Yrotation 
						JOINT LowerArm_R
						{
							OFFSET -24.3289 0.000322201 0.0
							CHANNELS 6 Xposition Yposition Zposition Zrotation Xrotation Yrotation 
							JOINT Hand_R
							{
								OFFSET -22.2915 -0.000108084 0.0
								CHANNELS 6 Xposition Yposition Zposition Zrotation Xrotation Yrotation 
								End Site
								{
									OFFSET 0.0 0.0 0.0
								}
							}
						}
					}
				}
			}
		}
		JOINT UpperLeg_L
		{
			OFFSET -2.19248 -6.46944 0.0
			CHANNELS 6 Xposition Yposition Zposition Zrotation Xrotation Yrotation 
			JOINT LowerLeg_L
			{
				OFFSET 39.0811 0.0 -1.23785e-05
				CHANNELS 6 Xposition Yposition Zposition Zrotation Xrotation Yrotation 
				JOINT Foot_L
				{
					OFFSET 40.9854 0.0 -1.26872e-05
					CHANNELS 6 Xposition Yposition Zposition Zrotation Xrotation Yrotation 
					JOINT Toes_L
					{
						OFFSET 11.7543 0.0 0.0
						CHANNELS 6 Xposition Yposition Zposition Zrotation Xrotation Yrotation 
						End Site
						{
							OFFSET 0.0 0.0 0.0
						}
					}
				}
			}
		}
		JOINT UpperLeg_R
		{
			OFFSET -2.19251 6.46944 0.0
			CHANNELS 6 Xposition Yposition Zposition Zrotation Xrotation Yrotation 
			JOINT LowerLeg_R
			{
				OFFSET -39.0811 -0.00228153 -0.0401928
				CHANNELS 6 Xposition Yposition Zposition Zrotation Xrotation Yrotation 
				JOINT Foot_R
				{
					OFFSET -40.9854 0.0 0.0
					CHANNELS 6 Xposition Yposition Zposition Zrotation Xrotation Yrotation 
					JOINT Toes_R
					{
						OFFSET -11.7543 0.0 0.0
						CHANNELS 6 Xposition Yposition Zposition Zrotation Xrotation Yrotation 
						End Site
						{
							OFFSET 0.0 0.0 0.0
						}
					}
				}
			}
		}
	}
}
MOTION
Frames:	9
Frame Time:	0.0333333
0.000000 0.000000 0.000000 0.000000 0.000000 -0.000000 -2.366770 92.577100 0.034194 85.962600 1.145420 -0.137891 15.735700 0.000005 -0.000001 68.132800 88.195400 -67.338000 8.984550 -0.406207 -0.000000 -4.406800 -1.427580 1.535820 16.377300 -0.000001 -0.000001 7.851550 0.715307 3.669010 6.456720 -0.000001 -0.000000 6.729050 2.547750 13.747800 12.994200 -0.242716 4.980390 -92.209400 6.592140 -71.424100 5.348090 -0.000007 -0.000001 -72.912700 27.558600 0.804452 24.328600 0.000019 0.000005 13.694100 30.899600 -25.383500 22.291600 -0.000001 0.000005 -3.570340 5.033220 6.604640 12.994500 -0.242716 -4.980390 87.397400 7.810860 -71.506600 -5.348130 -0.000001 -0.000004 -63.786700 -8.840810 -6.755250 -24.328900 0.000322 -0.000009 26.775700 -24.319400 -129.218000 -22.291500 -0.000108 -0.000004 57.453700 5.681760 -21.672700 -2.192480 -6.469440 -0.000000 -174.589000 1.939120 -5.224960 39.081100 -0.000007 -0.000012 0.280505 -0.665762 22.847700 40.985400 -0.000006 -0.000013 1.358690 7.188450 -73.769700 11.754300 -0.000000 0.000003 0.000053 0.166725 -9.814580 -2.192510 6.469440 -0.000001 -172.619000 9.648710 -178.970000 -39.081100 -0.002282 -0.040193 0.021007 -0.081136 12.287300 -40.985400 0.000008 0.000006 -0.284306 1.932410 -69.045700 -11.754300 -0.000006 -0.000006 -0.009525 0.267722 -5.697520
0.000000 0.000000 0.000000 0.000000 0.000000 -0.000000 -2.380000 92.569900 0.018808 85.956300 1.126980 -0.091877 15.735700 0.000005 -0.000001 68.395100 88.191800 -67.635300 8.984550 -0.406207 -0.000000 -4.394500 -1.411130 1.466480 16.377300 -0.000001 -0.000001 7.865280 0.661530 3.846650 6.456720 -0.000001 -0.000000 6.814610 2.593950 13.937800 12.994200 -0.242716 4.980390 -92.199500 6.557060 -71.410300 5.348090 -0.000007 -0.000001 -72.875200 27.607800 0.724610 24.328600 0.000019 0.000005 13.681100 30.887800 -25.369300 22.291600 -0.000001 0.000005 -3.581830 5.033190 6.605330 12.994500 -0.242716 -4.980390 87.412700 7.794160 -71.571400 -5.348130 -0.000001 -0.000004 -64.238900 -8.906440 -7.021280 -24.328900 0.000322 -0.000009 22.356700 -20.486900 -130.395000 -22.291500 -0.000108 -0.000004 57.460100 5.675820 -18.512000 -2.192480 -6.469440 -0.000000 -174.570000 1.977290 -5.210060 39.081100 -0.000007 -0.000012 0.280535 -0.664093 22.901400 40.985400 -0.000006 -0.000013 1.344570 7.188840 -73.773700 11.754300 -0.000000 0.000003 0.000019 0.167306 -9.790980 -2.192510 6.469440 -0.000001 -172.608000 9.748830 -178.964000 -39.081100 -0.002282 -0.040193 0.022123 -0.085778 12.354200 -40.985400 0.000008 0.000006 -0.231123 2.004360 -69.072500 -11.754300 -0.000006 -0.000006 -0.009515 0.267644 -5.700680
0.000000 0.000000 0.000000 0.000000 0.000000 -0.000000 -2.392000 92.574500 -0.000066 85.951600 1.165850 -0.066061 15.735700 0.000005 -0.000001 69.016200 88.192700 -68.290000 8.984550 -0.406207 -0.000000 -4.382680 -1.370330 1.400780 16.377300 -0.000001 -0.000001 7.854810 0.638045 3.858250 6.456720 -0.000001 -0.000000 6.818380 2.488210 14.227800 12.994200 -0.242716 4.980390 -92.192800 6.549230 -71.442300 5.348090 -0.000007 -0.000001 -72.823300 27.558800 0.637197 24.328600 0.000019 0.000005 13.681700 30.871200 -25.381100 22.291600 -0.000001 0.000005 -3.519150 5.031480 6.642600 12.994500 -0.242716 -4.980390 87.427900 7.742690 -71.559900 -5.348130 -0.000001 -0.000004 -65.048600 -9.589660 -7.440530 -24.328900 0.000322 -0.000009 16.409800 -15.357000 -131.963000 -22.291500 -0.000108 -0.000004 57.556600 5.628080 -13.223300 -2.192480 -6.469440 -0.000000 -174.557000 2.040550 -5.193370 39.081100 -0.000007 -0.000012 0.279016 -0.661029 22.884900 40.985400 -0.000006 -0.000013 1.362040 7.177800 -73.788900 11.754300 -0.000000 0.000003 0.000013 0.167409 -9.786800 -2.192510 6.469440 -0.000001 -172.594000 9.723760 -178.931000 -39.081100 -0.002282 -0.040193 0.021936 -0.085236 12.310500 -40.985400 0.000008 0.000006 -0.198249 1.961270 -69.079500 -11.754300 -0.000006 -0.000006 -0.009881 0.270417 -5.587320
0.000000 0.000000 0.000000 0.000000 0.000000 -0.000000 -2.387160 92.573200 -0.020867 85.951400 1.177370 -0.088103 15.735700 0.000005 -0.000001 69.298900 88.206000 -68.588900 8.984550 -0.406207 -0.000000 -4.401550 -1.342680 1.369370 16.377300 -0.000001 -0.000001 7.849430 0.573555 3.866820 6.456720 -0.000001 -0.000000 6.806440 2.419450 14.245600 12.994200 -0.242716 4.980390 -92.198700 6.571150 -71.453800 5.348090 -0.000007 -0.000001 -72.767400 27.528900 0.572212 24.328600 0.000019 0.000005 13.687700 30.867900 -25.393300 22.291600 -0.000001 0.000005 -3.404800 5.029690 6.681630 12.994500 -0.242716 -4.980390 87.464400 7.639380 -71.576300 -5.348130 -0.000001 -0.000004 -66.015500 -10.803000 -7.969320 -24.328900 0.000322 -0.000009 9.997250 -9.670860 -133.622000 -22.291500 -0.000108 -0.000004 57.920200 5.520650 -7.425530 -2.192480 -6.469440 -0.000000 -174.560000 2.016930 -5.250560 39.081100 -0.000007 -0.000012 0.280486 -0.663827 22.906000 40.985400 -0.000006 -0.000013 1.375540 7.208770 -73.722300 11.754300 -0.000000 0.000003 0.000087 0.166154 -9.837790 -2.192510 6.469440 -0.000001 -172.591000 9.742690 -178.982000 -39.081100 -0.002282 -0.040193 0.022257 -0.086524 12.336100 -40.985400 0.000008 0.000006 -0.166001 1.981080 -69.043200 -11.754300 -0.000006 -0.000006 -0.009538 0.267822 -5.693430
0.000000 0.000000 0.000000 0.000000 0.000000 -0.000000 -2.384540 92.587800 -0.033843 85.978400 1.239830 -0.079314 15.735700 0.000005 -0.000001 69.172600 88.215900 -68.477500 8.984550 -0.406207 -0.000000 -4.423110 -1.341560 1.339260 16.377300 -0.000001 -0.000001 7.834760 0.548296 3.779660 6.456720 -0.000001 -0.000000 6.803820 2.373340 14.229600 12.994200 -0.242716 4.980390 -92.195100 6.564820 -71.465300 5.348090 -0.000007 -0.000001 -72.760600 27.499400 0.596790 24.328600 0.000019 0.000005 13.712000 30.859900 -25.439400 22.291600 -0.000001 0.000005 -3.410790 5.030950 6.654240 12.994500 -0.242716 -4.980390 87.473900 7.585160 -71.519300 -5.348130 -0.000001 -0.000004 -66.678100 -11.888100 -8.458790 -24.328900 0.000322 -0.000009 2.819210 -2.821940 -134.998000 -22.291500 -0.000108 -0.000004 59.421400 5.427150 -3.866630 -2.192480 -6.469440 -0.000000 -174.587000 2.020080 -5.217280 39.081100 -0.000007 -0.000012 0.277246 -0.658759 22.824900 40.985400 -0.000006 -0.000013 1.321860 7.199700 -73.720600 11.754300 -0.000000 0.000003 -0.000064 0.168696 -9.734550 -2.192510 6.469440 -0.000001 -172.637000 9.832890 -178.947000 -39.081100 -0.002282 -0.040193 0.020905 -0.080792 12.269200 -40.985400 0.000008 0.000006 -0.321768 2.014010 -69.018400 -11.754300 -0.000006 -0.000006 -0.009709 0.269117 -5.640480
0.000000 0.000000 0.000000 0.000000 0.000000 -0.000000 -2.379060 92.583200 -0.044193 85.986200 1.268860 -0.114751 15.735700 0.000005 -0.000001 68.789100 88.228200 -68.081900 8.984550 -0.406207 -0.000000 -4.454350 -1.356410 1.362590 16.377300 -0.000001 -0.000001 7.810460 0.567300 3.646100 6.456720 -0.000001 -0.000000 6.806730 2.354980 14.111800 12.994200 -0.242716 4.980390 -92.208700 6.605760 -71.465300 5.348090 -0.000007 -0.000001 -72.732800 27.538200 0.605901 24.328600 0.000019 0.000005 13.718900 30.893800 -25.429000 22.291600 -0.000001 0.000005 -3.428960 5.030510 6.663440 12.994500 -0.242716 -4.980390 87.491900 7.507740 -71.466700 -5.348130 -0.000001 -0.000004 -67.059200 -12.346200 -8.825540 -24.328900 0.000322 -0.000009 -0.990096 0.998862 -135.257000 -22.291500 -0.000108 -0.000004 61.391300 5.379310 -2.279740 -2.192480 -6.469440 -0.000000 -174.591000 1.999410 -5.277770 39.081100 -0.000007 -0.000012 0.280595 -0.666114 22.843500 40.985400 -0.000006 -0.000013 1.399000 7.316920 -73.690800 11.754300 -0.000000 0.000003 0.000036 0.167011 -9.802960 -2.192510 6.469440 -0.000001 -172.618000 9.811830 -179.005000 -39.081100 -0.002282 -0.040193 0.022266 -0.086912 12.288400 -40.985400 0.000008 0.000006 -0.116617 1.936340 -69.061400 -11.754300 -0.000006 -0.000006 -0.009848 0.270164 -5.597640
0.000000 0.000000 0.000000 0.000000 0.000000 -0.000000 -2.360420 92.595100 -0.042131 86.020900 1.284490 -0.098158 15.735700 0.000005 -0.000001 68.447600 88.227900 -67.735600 8.984550 -0.406207 -0.000000 -4.461420 -1.376810 1.371420 16.377300 -0.000001 -0.000001 7.824720 0.588497 3.555410 6.456720 -0.000001 -0.000000 6.804050 2.418340 13.935800 12.994200 -0.242716 4.980390 -92.217300 6.640500 -71.488600 5.348090 -0.000007 -0.000001 -72.729800 27.501600 0.656458 24.328600 0.000019 0.000005 13.697000 30.922200 -25.373900 22.291600 -0.000001 0.000005 -3.394390 5.030540 6.663070 12.994500 -0.242716 -4.980390 87.497200 7.487910 -71.458100 -5.348130 -0.000001 -0.000004 -66.858600 -11.850800 -8.624870 -24.328900 0.000322 -0.000009 2.170910 -2.164070 -134.891000 -22.291500 -0.000108 -0.000004 61.537100 5.369200 -1.961130 -2.192480 -6.469440 -0.000000 -174.622000 1.957420 -5.209370 39.081100 -0.000007 -0.000012 0.274054 -0.653585 22.749300 40.985400 -0.000006 -0.000013 1.350970 7.359740 -73.669900 11.754300 -0.000000 0.000003 -0.000021 0.167974 -9.763840 -2.192510 6.469440 -0.000001 -172.679000 9.772140 -178.984000 -39.081100 -0.002282 -0.040193 0.021175 -0.081985 12.276200 -40.985400 0.000008 0.000006 -0.343295 1.904820 -69.016100 -11.754300 -0.000006 -0.000006 -0.009618 0.268428 -5.668660
0.000000 0.000000 0.000000 0.000000 0.000000 -0.000000 -2.364610 92.591600 -0.044048 86.027700 1.283100 -0.098435 15.735700 0.000005 -0.000001 68.169400 88.224300 -67.429300 8.984550 -0.406207 -0.000000 -4.460540 -1.398470 1.426770 16.377300 -0.000001 -0.000001 7.778920 0.644622 3.454920 6.456720 -0.000001 -0.000000 6.826920 2.465270 13.777600 12.994200 -0.242716 4.980390 -92.234600 6.678470 -71.452300 5.348090 -0.000007 -0.000001 -72.730300 27.495700 0.660108 24.328600 0.000019 0.000005 13.711900 31.055300 -25.313200 22.291600 -0.000001 0.000005 -3.457690 5.031800 6.635700 12.994500 -0.242716 -4.980390 87.476700 7.569470 -71.502600 -5.348130 -0.000001 -0.000004 -66.069600 -10.488400 -8.043580 -24.328900 0.000322 -0.000009 8.280600 -8.140620 -134.213000 -22.291500 -0.000108 -0.000004 60.629200 5.425450 -3.801310 -2.192480 -6.469440 -0.000000 -174.630000 1.950270 -5.224520 39.081100 -0.000007 -0.000012 0.276341 -0.658280 22.772900 40.985400 -0.000006 -0.000013 1.346900 7.399220 -73.656400 11.754300 -0.000000 0.000003 0.000067 0.166494 -9.823970 -2.192510 6.469440 -0.000001 -172.664000 9.674290 -178.990000 -39.081100 -0.002282 -0.040193 0.021876 -0.085158 12.283100 -40.985400 0.000008 0.000006 -0.193803 1.817010 -69.042900 -11.754300 -0.000006 -0.000006 -0.009752 0.269446 -5.627010
0.000000 0.000000 0.000000 0.000000 0.000000 -0.000000 -2.363140 92.591100 -0.041693 86.035800 1.281860 -0.112947 15.735700 0.000005 -0.000001 67.968400 88.224700 -67.197600 8.984550 -0.406207 -0.000000 -4.465410 -1.413020 1.487480 16.377300 -0.000001 -0.000001 7.738940 0.686564 3.407860 6.456720 -0.000001 -0.000000 6.838260 2.530160 13.631400 12.994200 -0.242716 4.980390 -92.236300 6.666230 -71.407400 5.348090 -0.000007 -0.000001 -72.807400 27.490800 0.698824 24.328600 0.000019 0.000005 13.680900 30.976900 -25.311400 22.291600 -0.000001 0.000005 -3.463350 5.029350 6.688910 12.994500 -0.242716 -4.980390 87.447200 7.675730 -71.541300 -5.348130 -0.000001 -0.000004 -64.991300 -8.695510 -7.378370 -24.328900 0.000322 -0.000009 14.009300 -13.675300 -133.456000 -22.291500 -0.000108 -0.000004 59.445800 5.529790 -7.846380 -2.192480 -6.469440 -0.000000 -174.638000 1.961970 -5.235020 39.081100 -0.000007 -0.000012 0.276098 -0.657706 22.772700 40.985400 -0.000006 -0.000013 1.325610 7.392220 -73.661100 11.754300 -0.000000 0.000003 0.000028 0.167158 -9.797000 -2.192510 6.469440 -0.000001 -172.667000 9.700680 -179.000000 -39.081100 -0.002282 -0.040193 0.021841 -0.085026 12.279000 -40.985400 0.000008 0.000006 -0.188929 1.821880 -69.032900 -11.754300 -0.000006 -0.000006 -0.009573 0.268087 -5.682590
